<svg width="133" height="34" viewBox="0 0 133 34" fill="none" xmlns="http://www.w3.org/2000/svg">
<path d="M122.488 29.8316C122.432 29.8236 122.382 29.7941 122.348 29.7496C122.313 29.6905 122.298 29.6219 122.305 29.5537V19.5132C122.301 19.4596 122.315 19.4063 122.345 19.3613C122.393 19.2778 122.516 19.2657 122.641 19.2657C122.766 19.2657 124.598 19.2657 124.68 19.2657C124.734 19.268 124.785 19.2909 124.822 19.3294C124.9 19.3789 124.967 19.4448 125.017 19.5223C125.069 19.5982 129.429 25.2229 129.514 25.3337C129.599 25.4446 129.704 25.5736 129.739 25.5736C129.758 25.5736 129.776 25.567 129.791 25.5551C129.805 25.5431 129.815 25.5266 129.818 25.5084C129.818 25.0528 129.838 19.6984 129.844 19.4342C129.845 19.4131 129.85 19.3923 129.859 19.3732C129.869 19.3541 129.882 19.3371 129.898 19.3234C129.948 19.284 130.011 19.2645 130.074 19.2687C130.119 19.2808 132.144 19.29 132.256 19.2808C132.328 19.2832 132.398 19.3082 132.454 19.3522C132.474 19.3687 132.489 19.3896 132.498 19.4132C132.507 19.4368 132.51 19.4623 132.507 19.4874V29.6114C132.518 29.674 132.506 29.7385 132.474 29.7937C132.417 29.8559 132.243 29.8514 132.207 29.8514H130.244C130.14 29.8489 130.036 29.8336 129.935 29.8058C129.868 29.7586 129.808 29.7012 129.759 29.6357C129.409 29.1802 125.358 23.9367 125.176 23.7028C125.176 23.7028 125.084 23.551 125.021 23.5768C124.993 23.5844 124.989 23.6178 124.989 23.6588V29.6114C124.991 29.6388 124.988 29.6665 124.98 29.6927C124.971 29.7188 124.957 29.7429 124.938 29.7633C124.916 29.7848 124.89 29.8018 124.862 29.8132C124.834 29.8247 124.803 29.8304 124.773 29.8301H122.492L122.488 29.8316Z" fill="white"/>
<path d="M88.627 29.3077L85.8951 19.337C85.8658 19.2277 85.7407 19.1533 85.543 19.1411C85.4441 19.1411 81.4227 19.1093 81.3223 19.1123C81.2624 19.1161 81.2047 19.1359 81.1554 19.1696C81.1061 19.2033 81.0672 19.2497 81.0428 19.3036C79.9293 23.7727 79.1896 25.7058 78.1888 29.3017C78.1645 29.3494 78.1534 29.4026 78.1566 29.456C78.1599 29.5093 78.1774 29.5608 78.2074 29.6054C78.2437 29.6505 78.2911 29.6859 78.3451 29.7082C78.3991 29.7305 78.458 29.739 78.5162 29.7329H80.2721C80.3533 29.7403 80.4346 29.72 80.5023 29.6752C80.5611 29.6413 80.6096 29.5926 80.6428 29.534L81.0165 28.3055H85.7422L86.0789 29.5203C86.1023 29.5864 86.1511 29.6409 86.2148 29.6722C86.2797 29.7138 86.3551 29.7369 86.4325 29.739H88.2966C88.3552 29.7405 88.4134 29.7289 88.4668 29.7053C88.5203 29.6816 88.5677 29.6464 88.6054 29.6023C88.6306 29.5577 88.6456 29.5083 88.6493 29.4574C88.653 29.4065 88.6454 29.3554 88.627 29.3077ZM85.1276 26.1188H81.6512C81.9601 24.825 82.4775 23.3718 82.9238 21.7151C82.9352 21.6809 82.9574 21.6512 82.9871 21.6302C83.0167 21.6092 83.0524 21.5979 83.089 21.5981C83.4288 21.5981 83.313 21.586 83.7346 21.586C83.7711 21.5914 83.8052 21.6072 83.8327 21.6315C83.8601 21.6558 83.8797 21.6875 83.889 21.7227C84.2766 23.2336 85.1615 26.1279 85.1276 26.1279V26.1188Z" fill="white"/>
<path d="M119.398 22.9299C119.263 22.4273 119.055 21.9465 118.78 21.5025C118.504 21.0567 118.155 20.6586 117.747 20.3241C117.317 19.9744 116.827 19.7025 116.3 19.5208C115.704 19.3218 115.077 19.2237 114.447 19.2307C113.812 19.2238 113.181 19.3218 112.58 19.5208C112.051 19.6997 111.56 19.9719 111.131 20.3241C110.721 20.6568 110.371 21.0552 110.095 21.5025C109.821 21.9468 109.613 22.4275 109.477 22.9299C109.205 23.9446 109.205 25.0114 109.477 26.0262C109.614 26.5324 109.822 27.0175 110.095 27.4673C110.374 27.9126 110.724 28.311 111.131 28.6472C111.563 28.9951 112.053 29.2655 112.58 29.4459C113.178 29.6437 113.805 29.7417 114.436 29.7359C115.066 29.742 115.693 29.6429 116.289 29.4429C116.815 29.2598 117.304 28.9896 117.736 28.6441C118.141 28.3063 118.49 27.9081 118.77 27.4642C119.043 27.0147 119.251 26.5296 119.387 26.0231C119.661 25.0086 119.661 23.9414 119.387 22.9268L119.398 22.9299ZM116.773 25.5114C116.673 25.8262 116.516 26.1205 116.309 26.38C116.104 26.6425 115.84 26.855 115.537 27.0011C115.199 27.1565 114.83 27.2371 114.456 27.2371C114.083 27.2371 113.714 27.1565 113.375 27.0011C113.073 26.8548 112.809 26.6423 112.603 26.38C112.395 26.1214 112.238 25.8268 112.14 25.5114C112.034 25.1833 111.982 24.841 111.985 24.497C111.986 24.2248 112.019 23.9537 112.084 23.6891C112.148 23.4238 112.249 23.1684 112.384 22.9299C112.517 22.701 112.685 22.4932 112.881 22.3134C113.084 22.1312 113.32 21.9885 113.578 21.8927C114.152 21.6882 114.782 21.6882 115.357 21.8927C115.611 21.9911 115.846 22.1335 116.05 22.3134C116.248 22.4912 116.415 22.6994 116.546 22.9299C116.687 23.1661 116.791 23.4221 116.855 23.6891C116.923 23.9531 116.958 24.2245 116.958 24.497C116.948 24.8429 116.884 25.1851 116.767 25.5114H116.773Z" fill="white"/>
<path d="M75.8491 26.4924C75.857 26.9924 75.7135 27.4835 75.4367 27.9031C75.1392 28.3293 74.744 28.6809 74.2831 28.9296C73.7207 29.2038 73.1256 29.4079 72.5117 29.537C71.7648 29.711 71.0013 29.8072 70.2338 29.824C69.1893 29.8378 68.1451 29.7764 67.1096 29.6403C66.8869 29.6079 66.6667 29.5612 66.4502 29.5006C66.3055 29.4603 66.1709 29.391 66.0548 29.2971C65.9838 29.2151 66.0919 27.5872 66.095 27.4642C66.0981 27.3412 66.1197 27.2972 66.1815 27.2698C66.322 27.1651 66.5428 27.2364 66.6911 27.2562C66.8394 27.2759 69.0246 27.5599 70.1999 27.5918C70.5865 27.6045 70.9736 27.5837 71.3566 27.5295C71.5957 27.4997 71.8298 27.4395 72.0531 27.3503C72.1994 27.2892 72.3317 27.1999 72.4423 27.0876C72.5523 26.976 72.6166 26.8284 72.6229 26.6731C72.6229 26.4544 72.6121 26.3056 72.4345 26.1522C72.2326 25.9974 72.004 25.8796 71.7597 25.8045C70.8469 25.5007 70.152 25.3489 69.2439 25.071C68.8563 24.9526 68.4409 24.8265 68.0687 24.6747C67.7251 24.5376 67.3999 24.3596 67.1004 24.1447C66.8156 23.9201 66.578 23.6431 66.4008 23.3292C66.2144 22.9767 66.1229 22.583 66.1351 22.1858C66.1324 21.751 66.2567 21.3246 66.4934 20.9573C66.7535 20.5568 67.1086 20.2243 67.5281 19.9885C68.0397 19.6979 68.5948 19.4888 69.1729 19.3689C69.9018 19.2064 72.189 19.1867 72.9828 19.2444C73.6705 19.2731 74.352 19.3848 75.012 19.5769C75.0507 19.5952 75.0738 19.5952 75.0815 19.6544C75.0862 19.712 75.0862 19.7699 75.0815 19.8275C75.0985 20.2648 75.0815 21.1517 75.0738 21.2428C75.0719 21.3216 75.0455 21.3979 74.9981 21.4614C74.9588 21.5157 74.9055 21.5587 74.8437 21.586C74.7737 21.6164 74.6979 21.632 74.6213 21.6315C74.5626 21.6315 72.6137 21.346 71.4384 21.3384C71.0952 21.3214 70.7512 21.3326 70.4099 21.3719C70.1608 21.4095 69.9151 21.4659 69.6748 21.5404C69.5267 21.598 69.3926 21.6854 69.281 21.797C69.2404 21.8311 69.2076 21.8731 69.1847 21.9205C69.1618 21.9679 69.1493 22.0195 69.1482 22.0719C69.1454 22.1782 69.1688 22.2835 69.2164 22.379C69.264 22.4745 69.3344 22.5572 69.4215 22.6201C69.5991 22.7719 69.9358 22.8691 70.2354 22.9861C70.535 23.103 71.1326 23.2336 71.5141 23.3338C71.8956 23.434 72.3033 23.4857 72.694 23.6026C73.0847 23.7195 73.4662 23.8547 73.8414 24.0035C74.2063 24.1449 74.5485 24.3372 74.8576 24.5744C75.1497 24.7922 75.3944 25.0654 75.5773 25.3777C75.7636 25.7203 75.8577 26.104 75.8506 26.4924H75.8491Z" fill="white"/>
<path d="M58.3424 29.7451C59.0335 29.7455 59.7222 29.6634 60.3933 29.5006C60.9807 29.3625 61.5399 29.1273 62.0473 28.8051C62.4966 28.5205 62.8717 28.1361 63.1422 27.6829C63.4104 27.2283 63.5491 26.7111 63.5437 26.1856V19.5041C63.5399 19.4678 63.5275 19.4329 63.5073 19.4023C63.4872 19.3717 63.46 19.3462 63.4279 19.3279C63.3498 19.2632 63.2505 19.2286 63.1484 19.2307L61.1098 19.2656C61.0059 19.2666 60.9043 19.2961 60.8164 19.3507C60.7827 19.37 60.7542 19.3971 60.7335 19.4297C60.7128 19.4622 60.7004 19.4992 60.6975 19.5375V26.219C60.6993 26.4387 60.6319 26.6536 60.5045 26.834C60.3709 27.0124 60.1976 27.1583 59.9979 27.2607C59.7741 27.3804 59.5337 27.4673 59.2844 27.5189C58.973 27.5673 58.6574 27.5851 58.3424 27.572C57.9588 27.5736 57.5774 27.5162 57.2119 27.402C56.9104 27.2997 56.6341 27.1362 56.4011 26.9221C56.1895 26.711 55.9888 26.4665 55.9888 26.1628V19.5041C55.9846 19.467 55.9711 19.4315 55.9495 19.4007C55.928 19.37 55.899 19.345 55.8652 19.3279C55.7845 19.2614 55.6816 19.2268 55.5764 19.2307H53.5394C53.4323 19.2263 53.3273 19.2609 53.2445 19.3279C53.2118 19.3458 53.184 19.3712 53.1633 19.4018C53.1426 19.4324 53.1297 19.4675 53.1256 19.5041V26.1856C53.122 26.704 53.2641 27.2132 53.5364 27.6571C53.8169 28.1102 54.1994 28.4941 54.6545 28.7793C55.1632 29.1068 55.7244 29.3476 56.3146 29.4915C56.9776 29.6564 57.6585 29.7416 58.3424 29.7451Z" fill="white"/>
<path d="M48.2671 19.2308C48.1647 19.229 48.0644 19.2599 47.9814 19.3188C47.9495 19.3366 47.9225 19.3619 47.9029 19.3923C47.8832 19.4228 47.8714 19.4575 47.8686 19.4935V23.3414L43.4286 23.3293V19.4798C43.4267 19.4432 43.4148 19.4078 43.3942 19.3774C43.3735 19.3469 43.3449 19.3225 43.3113 19.3067C43.2311 19.2446 43.1305 19.2137 43.0286 19.2201L40.9685 19.2308C40.866 19.2282 40.7655 19.2592 40.6828 19.3188C40.6503 19.3363 40.6227 19.3613 40.6025 19.3918C40.5823 19.4223 40.5701 19.4572 40.567 19.4935V29.4839C40.5703 29.5193 40.5826 29.5533 40.6029 29.5828C40.6231 29.6123 40.6506 29.6362 40.6828 29.6525C40.7217 29.6859 40.767 29.7113 40.8161 29.7273C40.8652 29.7432 40.917 29.7492 40.9685 29.7451L43.0286 29.7314C43.1295 29.727 43.2273 29.6955 43.3113 29.6403C43.3436 29.6241 43.3712 29.6001 43.3917 29.5707C43.4122 29.5412 43.4249 29.5072 43.4286 29.4718V25.4704L47.8686 25.4902V29.4839C47.8703 29.5194 47.8816 29.5537 47.9015 29.5834C47.9213 29.6131 47.9489 29.6369 47.9814 29.6525C48.0606 29.7189 48.1632 29.7521 48.2671 29.7451H50.3365C50.436 29.7506 50.5336 29.7173 50.6083 29.6525C50.6402 29.6363 50.6672 29.6123 50.6867 29.5827C50.7062 29.5532 50.7175 29.5191 50.7195 29.4839V19.4935C50.7177 19.4574 50.7065 19.4225 50.687 19.3919C50.6676 19.3613 50.6405 19.3362 50.6083 19.3188C50.5299 19.261 50.4345 19.2301 50.3365 19.2308H48.2671Z" fill="white"/>
<path d="M101.201 29.3669L99.8931 27.3503C99.6738 27.0254 99.4298 26.6655 99.1981 26.3056C98.9665 25.9457 98.7348 25.5767 98.5032 25.2335C98.9709 25.1108 99.4182 24.9226 99.8313 24.6747C100.208 24.4386 100.527 24.1252 100.769 23.756C101.008 23.3462 101.128 22.8798 101.116 22.4075C101.127 21.9466 101.016 21.4908 100.793 21.0849C100.597 20.7285 100.318 20.4227 99.9796 20.192C99.6392 19.9602 99.2682 19.7752 98.8769 19.6422C98.4941 19.5141 98.1002 19.4205 97.7001 19.3628C97.3109 19.3066 96.965 19.2656 96.6608 19.2444C96.3565 19.2231 96.128 19.2307 95.9735 19.2307H91.7019C91.5938 19.2309 91.4875 19.2581 91.393 19.3097C91.3599 19.3288 91.3319 19.3555 91.3115 19.3875C91.2911 19.4194 91.2788 19.4558 91.2756 19.4934V29.4793C91.2805 29.515 91.2936 29.5492 91.314 29.5792C91.3343 29.6092 91.3613 29.6343 91.393 29.6524C91.4965 29.7095 91.6142 29.7369 91.7328 29.7314H93.6678C93.785 29.7375 93.9014 29.7101 94.003 29.6524C94.037 29.6354 94.0666 29.6109 94.0897 29.5809C94.1127 29.5509 94.1284 29.5162 94.1358 29.4793V25.5433H95.3218L97.938 29.5704C97.9605 29.6022 97.9923 29.6265 98.0291 29.6403C98.0784 29.6683 98.1301 29.6921 98.1835 29.7116C98.2342 29.7232 98.2859 29.7298 98.3379 29.7314H100.809C100.938 29.7435 101.067 29.7053 101.167 29.6251C101.204 29.5934 101.227 29.5498 101.234 29.5023C101.24 29.4548 101.228 29.4067 101.201 29.3669ZM97.9395 23.0392C97.7916 23.1871 97.6076 23.2953 97.4051 23.3535C97.2058 23.4241 96.9983 23.4701 96.7874 23.4902C96.5758 23.51 96.4044 23.5236 96.2592 23.5236H94.1311V21.3719H96.2531C96.3699 21.3736 96.4866 21.3832 96.6021 21.4007C96.7677 21.4158 96.9322 21.4406 97.0947 21.4751C97.2708 21.5144 97.441 21.5756 97.6013 21.6573C97.7587 21.7305 97.8963 21.8392 98.0028 21.9747C98.1096 22.1144 98.1642 22.286 98.1573 22.4606C98.1628 22.5666 98.1464 22.6725 98.109 22.772C98.0715 22.8714 98.0139 22.9624 97.9395 23.0392Z" fill="white"/>
<path d="M104.577 19.2854C104.468 19.2793 104.361 19.3064 104.268 19.3628C104.233 19.3796 104.204 19.4054 104.182 19.4375C104.161 19.4696 104.149 19.5068 104.148 19.5451V29.5249C104.15 29.5618 104.163 29.5974 104.184 29.628C104.205 29.6587 104.234 29.6833 104.268 29.6995C104.37 29.7578 104.486 29.7877 104.603 29.786H106.537C106.655 29.7892 106.771 29.7592 106.872 29.6995C106.962 29.6403 107.026 29.5962 107.026 29.537C107.026 29.0192 107.026 20.7295 107.026 19.5952C107.026 19.4509 106.962 19.4266 106.962 19.4266C106.916 19.3788 106.861 19.3413 106.799 19.3169C106.738 19.2925 106.671 19.2817 106.605 19.2854C106.265 19.2854 104.752 19.2975 104.579 19.2854H104.577Z" fill="white"/>
<path d="M33.2606 0.378113H0.934331C0.418314 0.378113 0 0.789435 0 1.29683V33.0813C0 33.5887 0.418314 34 0.934331 34H33.2606C33.7767 34 34.195 33.5887 34.195 33.0813V1.29683C34.195 0.789435 33.7767 0.378113 33.2606 0.378113Z" fill="#CE0E2D"/>
<path d="M23.3413 19.0743H22.3931C22.226 19.0879 22.071 19.1653 21.9613 19.2899C21.8516 19.4145 21.7959 19.5764 21.8062 19.741V23.434H17.5314V13.764C17.5425 13.5983 17.4866 13.4349 17.3758 13.3095C17.265 13.1841 17.1084 13.1068 16.94 13.0943H15.9964C15.8279 13.1068 15.6713 13.1841 15.5605 13.3095C15.4498 13.4349 15.3938 13.5983 15.4049 13.764V29.1559C15.3942 29.3215 15.4503 29.4846 15.561 29.6099C15.6717 29.7353 15.8281 29.8127 15.9964 29.8255H16.94C17.1083 29.8127 17.2647 29.7353 17.3753 29.6099C17.486 29.4846 17.5421 29.3215 17.5314 29.1559V25.5296H21.8062V29.1559C21.7951 29.3216 21.8511 29.4849 21.9618 29.6103C22.0726 29.7358 22.2292 29.8131 22.3977 29.8255H23.3413C23.5104 29.8138 23.668 29.7369 23.7796 29.6114C23.8913 29.486 23.948 29.3222 23.9374 29.1559V19.741C23.9472 19.5751 23.8901 19.4121 23.7785 19.2873C23.6669 19.1626 23.5098 19.086 23.3413 19.0743Z" fill="white"/>
<path d="M20.0348 7.46359C20.0348 5.55479 19.1082 2.54809 18.7067 2.55265C18.3113 2.55265 17.3785 5.55479 17.3785 7.46359C17.3785 9.10968 18.072 9.40124 18.5167 9.45287C18.5797 9.46062 18.6432 9.46417 18.7067 9.4635C18.7707 9.46417 18.8347 9.46062 18.8982 9.45287C19.343 9.40124 20.0348 9.1112 20.0348 7.46359Z" fill="white"/>
<path d="M11.4035 18.3454C9.46224 18.3454 6.40597 19.2566 6.40906 19.6514C6.40906 20.0416 9.46224 20.9573 11.4035 20.9573C13.0776 20.9573 13.3741 20.2755 13.4266 19.8381C13.4353 19.7763 13.4389 19.7138 13.4374 19.6514C13.4389 19.5889 13.4353 19.5265 13.4266 19.4646C13.3741 19.0273 13.0776 18.3454 11.4035 18.3454Z" fill="white"/>
<path d="M12.9726 10.6206C11.2923 9.66396 8.18508 8.95024 7.98431 9.29191C7.782 9.62751 9.96108 11.9266 11.6429 12.8817C13.0915 13.7063 13.6953 13.2614 13.9594 12.9091C13.9948 12.8604 14.0263 12.8092 14.0536 12.7557C14.0859 12.7021 14.1143 12.6462 14.1385 12.5887C14.3223 12.1817 14.4134 11.4452 12.9726 10.6206Z" fill="white"/>
<path d="M11.5254 14.212C9.59499 14.0115 6.45687 14.6053 6.41827 14.9925C6.37193 15.3782 9.31392 16.6082 11.2444 16.8147C12.9092 16.9878 13.2767 16.3409 13.3771 15.9127C13.3924 15.8519 13.4028 15.7899 13.408 15.7275C13.4152 15.666 13.4183 15.6041 13.4173 15.5422C13.4111 15.0957 13.1902 14.3866 11.5254 14.212Z" fill="white"/>
<path d="M16.1029 8.09986C15.1346 6.44466 12.8011 4.29593 12.4598 4.49486C12.1139 4.6862 12.832 7.74453 13.8003 9.40277C14.6358 10.8287 15.3848 10.7406 15.7956 10.569C15.8542 10.5452 15.9109 10.5173 15.9655 10.4855C16.0198 10.4553 16.0714 10.4208 16.1199 10.3822C16.4859 10.118 16.9384 9.52577 16.1029 8.09986Z" fill="white"/>
<path d="M11.4035 22.4333C9.46224 22.4333 6.40597 23.3444 6.40906 23.7377C6.40906 24.1265 9.46224 25.0437 11.4035 25.0437C13.0776 25.0437 13.3741 24.3619 13.4266 23.9245C13.4352 23.8626 13.4388 23.8002 13.4374 23.7377C13.4388 23.6753 13.4352 23.6128 13.4266 23.551C13.3741 23.1136 13.0776 22.4333 11.4035 22.4333Z" fill="white"/>
</svg>
